<svg width="261" height="262" viewBox="0 0 261 262" fill="none" xmlns="http://www.w3.org/2000/svg">
<path fill-rule="evenodd" clip-rule="evenodd" d="M67.9421 1.10847e-05C66.0196 -6.09154e-05 64.1159 0.378537 62.3397 1.11419C60.5635 1.84984 58.9496 2.92813 57.5902 4.2875C56.2307 5.64688 55.1522 7.26071 54.4165 9.03685C53.6807 10.813 53.302 12.7167 53.302 14.6392C53.302 16.5617 53.6807 18.4654 54.4165 20.2415C55.1522 22.0177 56.2307 23.6315 57.5902 24.9909C58.9496 26.3502 60.5635 27.4285 62.3397 28.1642C64.1159 28.8998 66.0196 29.2784 67.9421 29.2783C71.3018 29.2783 74.5591 28.1227 77.1676 26.0054C79.7762 23.8882 81.5771 20.9382 82.2683 17.6504H97.7275C99.4084 17.6504 100.661 18.9068 100.661 20.5877V43.6295H91.922C91.5056 43.6294 91.0935 43.7134 90.7103 43.8764C90.3272 44.0393 89.9808 44.278 89.6921 44.578C89.4034 44.8781 89.1781 45.2333 89.03 45.6225C88.8818 46.0116 88.8137 46.4267 88.8298 46.8428C88.8414 47.1271 88.8472 47.4123 88.8491 47.6968C87.8858 56.2916 85.0016 62.7888 80.8475 67.0534C76.6755 71.3364 71.2188 73.5519 64.3372 73.4029C64.3158 73.4026 64.2945 73.4026 64.2731 73.4029C63.628 73.4027 62.9818 73.3767 62.337 73.3239C61.9283 73.2901 61.517 73.338 61.127 73.4646C60.737 73.5912 60.3761 73.7941 60.0652 74.0614C59.7543 74.3288 59.4996 74.6553 59.316 75.0219C59.1324 75.3885 59.0235 75.788 58.9957 76.1971C58.541 82.9133 57.8452 91.7947 57.7626 101.771L20.7787 101.691C19.0897 101.687 17.8334 100.44 17.8334 98.7589V83.1327C21.081 82.4067 23.9844 80.5959 26.065 77.9988C28.1456 75.4017 29.2793 72.1733 29.2793 68.8455C29.2793 66.923 28.9005 65.0193 28.1648 63.2432C27.429 61.4671 26.3506 59.8532 24.9911 58.4938C23.6317 57.1345 22.0178 56.0562 20.2416 55.3205C18.4654 54.5849 16.5617 54.2063 14.6391 54.2064C10.7566 54.2065 7.0332 55.7489 4.28785 58.4942C1.5425 61.2396 0.000103156 64.963 -1.52473e-05 68.8455C-0.00014746 72.1906 1.14528 75.4348 3.24562 78.0382C5.34595 80.6417 8.27451 82.4473 11.5439 83.1547V98.7589C11.5439 103.817 15.7128 107.974 20.7626 107.985L57.7966 108.065C57.9234 114.44 58.3479 121.145 59.2687 127.931H44.9246C44.2096 124.671 42.4018 121.752 39.801 119.66C37.2001 117.568 33.9624 116.427 30.6244 116.427C28.7019 116.427 26.7982 116.806 25.0221 117.542C23.246 118.278 21.6321 119.356 20.2727 120.716C18.9134 122.075 17.8351 123.689 17.0994 125.465C16.3638 127.241 15.9852 129.145 15.9853 131.067C15.9854 134.95 17.5278 138.673 20.2731 141.419C23.0184 144.164 26.7419 145.707 30.6244 145.707C33.9592 145.707 37.1941 144.568 39.7938 142.48C42.3935 140.391 44.2022 137.477 44.9206 134.221H60.2668C60.757 136.902 61.3341 139.585 62.0089 142.253C63.1936 146.938 64.6657 151.608 66.4373 156.214L21.0087 156.291C15.9573 156.299 11.7859 160.46 11.7859 165.518V180.856C8.50123 181.55 5.55484 183.352 3.44043 185.96C1.32602 188.567 0.172084 191.822 0.171997 195.18C0.171925 197.102 0.55054 199.006 1.28619 200.782C2.02184 202.558 3.10013 204.172 4.4595 205.532C5.81888 206.891 7.43271 207.969 9.20886 208.705C10.985 209.441 12.8887 209.82 14.8112 209.82C15.4503 209.82 16.0887 209.777 16.7223 209.694C20.2436 209.23 23.4764 207.502 25.8182 204.832C28.16 202.162 29.4513 198.731 29.4514 195.18C29.4512 194.523 29.4067 193.866 29.3184 193.215C28.9189 190.265 27.629 187.506 25.621 185.307C23.6129 183.108 20.9821 181.574 18.0795 180.91V165.518C18.0795 163.837 19.3324 162.584 21.0197 162.581L69.0636 162.502C73.9451 173.312 80.5562 183.623 89.0532 192.755C92.6014 196.569 96.4917 200.169 100.733 203.505V241.28C100.733 242.961 99.4767 244.218 97.7959 244.218H82.0416C81.3251 240.959 79.5168 238.042 76.9163 235.952C74.3158 233.861 71.0791 232.721 67.7424 232.722C63.8599 232.722 60.1365 234.264 57.3911 237.01C54.6458 239.755 53.1034 243.478 53.1033 247.361C53.1034 251.243 54.6458 254.967 57.3911 257.712C60.1365 260.458 63.8599 262 67.7424 262C71.0786 262 74.3147 260.861 76.9149 258.771C79.5151 256.681 81.3235 253.765 82.0406 250.507H97.7959C102.854 250.507 107.027 246.338 107.027 241.28V208.083C113.074 212.144 119.742 215.704 127.054 218.648V233.064C123.797 233.781 120.882 235.59 118.793 238.19C116.703 240.79 115.564 244.025 115.564 247.361C115.564 251.243 117.107 254.967 119.852 257.712C122.597 260.457 126.321 262 130.203 262C130.233 262 130.262 262 130.292 262C130.321 262 130.351 262 130.381 262C132.303 262 134.207 261.621 135.983 260.886C137.759 260.15 139.373 259.072 140.732 257.712C142.092 256.353 143.17 254.739 143.906 252.963C144.642 251.187 145.021 249.283 145.021 247.361C145.021 244.025 143.882 240.789 141.792 238.189C139.702 235.589 136.787 233.781 133.53 233.064V218.648C140.841 215.704 147.511 212.145 153.558 208.084V241.28C153.558 246.338 157.73 250.507 162.788 250.507H179.807C180.525 253.765 182.333 256.68 184.933 258.77C187.533 260.86 190.769 262 194.105 262C197.987 262 201.711 260.457 204.456 257.712C207.201 254.967 208.744 251.243 208.744 247.361C208.744 243.478 207.201 239.755 204.456 237.009C201.711 234.264 197.987 232.722 194.105 232.722C190.768 232.722 187.532 233.861 184.931 235.952C182.331 238.043 180.523 240.959 179.806 244.218H162.788C161.107 244.218 159.852 242.961 159.852 241.28V203.506C164.094 200.17 167.984 196.569 171.533 192.755C180.03 183.623 186.64 173.312 191.52 162.502L239.564 162.581C241.252 162.583 242.505 163.837 242.505 165.518V180.909C239.274 181.649 236.389 183.464 234.324 186.056C232.258 188.649 231.134 191.865 231.134 195.18C231.134 197.102 231.512 199.006 232.248 200.782C232.983 202.558 234.062 204.172 235.421 205.532C236.78 206.891 238.394 207.969 240.17 208.705C241.947 209.441 243.85 209.82 245.773 209.82C246.412 209.82 247.05 209.777 247.684 209.694C251.205 209.23 254.438 207.502 256.78 204.832C259.122 202.162 260.413 198.731 260.413 195.18C260.413 194.515 260.367 193.85 260.277 193.191C259.867 190.203 258.545 187.415 256.49 185.207C254.435 182.999 251.749 181.48 248.798 180.856V165.518C248.798 160.46 244.627 156.299 239.575 156.291L194.146 156.213C195.917 151.608 197.389 146.938 198.574 142.253C199.249 139.585 199.825 136.902 200.315 134.221H215.664C216.383 137.477 218.191 140.391 220.791 142.479C223.39 144.568 226.625 145.706 229.959 145.707C231.882 145.707 233.786 145.328 235.562 144.592C237.338 143.857 238.952 142.779 240.311 141.419C241.671 140.06 242.749 138.446 243.485 136.67C244.221 134.894 244.6 132.99 244.6 131.067C244.6 129.145 244.221 127.241 243.485 125.465C242.75 123.689 241.671 122.075 240.312 120.715C238.952 119.356 237.338 118.277 235.562 117.542C233.786 116.806 231.882 116.427 229.959 116.427C226.622 116.427 223.384 117.568 220.783 119.66C218.183 121.753 216.375 124.671 215.66 127.931H201.313C202.234 121.145 202.659 114.44 202.786 108.065L239.821 107.985C244.871 107.974 249.04 103.817 249.04 98.7589V83.1547C252.31 82.4475 255.238 80.6419 257.339 78.0385C259.439 75.435 260.585 72.1907 260.585 68.8455C260.585 66.923 260.206 65.0193 259.47 63.2432C258.735 61.467 257.656 59.8532 256.297 58.4938C254.937 57.1345 253.323 56.0562 251.547 55.3205C249.771 54.5849 247.867 54.2063 245.945 54.2063C242.062 54.2065 238.339 55.7488 235.593 58.4942C232.848 61.2395 231.306 64.963 231.306 68.8455C231.305 72.1731 232.439 75.4015 234.519 77.9986C236.6 80.5957 239.503 82.4065 242.75 83.1327V98.7589C242.75 100.44 241.495 101.687 239.806 101.691L202.82 101.771C202.738 91.7947 202.041 82.9133 201.586 76.1971C201.558 75.7884 201.45 75.3893 201.266 75.0229C201.083 74.6565 200.829 74.3302 200.518 74.063C200.208 73.7957 199.847 73.5927 199.458 73.4658C199.068 73.3389 198.657 73.2907 198.249 73.3239C197.604 73.3767 196.959 73.4027 196.314 73.4029C196.291 73.4026 196.268 73.4026 196.246 73.4029C189.364 73.5518 183.912 71.3364 179.74 67.0534C175.583 62.7859 172.695 56.2851 171.734 47.6818C171.736 47.4017 171.742 47.1224 171.753 46.8467C171.77 46.4303 171.702 46.0148 171.554 45.6252C171.406 45.2356 171.181 44.8799 170.892 44.5794C170.604 44.2789 170.257 44.0399 169.874 43.8767C169.49 43.7135 169.078 43.6294 168.661 43.6295H159.923V20.5877C159.923 18.9068 161.176 17.6504 162.856 17.6504H178.316C179.007 20.9382 180.808 23.8882 183.416 26.0054C186.025 28.1226 189.282 29.2783 192.642 29.2783C194.564 29.2784 196.468 28.8998 198.244 28.1642C200.021 27.4285 201.634 26.3502 202.994 24.9909C204.353 23.6315 205.432 22.0176 206.167 20.2415C206.903 18.4654 207.282 16.5617 207.282 14.6392C207.282 12.7167 206.903 10.813 206.167 9.03684C205.432 7.26069 204.353 5.64686 202.994 4.28749C201.634 2.92812 200.021 1.84982 198.244 1.11417C196.468 0.378523 194.564 -7.45306e-05 192.642 1.10052e-08C189.329 0.000135909 186.114 1.12379 183.523 3.18735C180.932 5.25091 179.117 8.13238 178.375 11.3609H162.856C157.799 11.3609 153.63 15.5298 153.63 20.5877V43.6295H133.442V28.9363C136.7 28.2187 139.614 26.4102 141.704 23.8102C143.793 21.2102 144.932 17.9747 144.932 14.6392C144.932 10.7567 143.39 7.0332 140.644 4.28784C137.899 1.54249 134.175 0.000116362 130.293 1.10052e-08C128.37 -7.19891e-05 126.467 0.378525 124.69 1.11417C122.914 1.84982 121.3 2.92812 119.941 4.2875C118.581 5.64687 117.503 7.2607 116.767 9.03685C116.032 10.813 115.653 12.7167 115.653 14.6392C115.653 17.9747 116.792 21.2102 118.881 23.8102C120.971 26.4102 123.885 28.2187 127.143 28.9363V43.6295H106.955V20.5877C106.955 15.5298 102.786 11.3609 97.7283 11.3609H82.211C81.4691 8.13221 79.654 5.25062 77.0623 3.18704C74.4707 1.12346 71.255 -8.07399e-05 67.9421 1.10847e-05ZM94.7493 49.817H165.833C167.075 58.7655 170.247 66.1778 175.305 71.3697C180.474 76.6767 187.55 79.4975 195.534 79.5304C196.591 94.9363 198.22 118.414 192.575 140.733C188.251 157.831 179.907 174.674 167.004 188.541C157.475 198.783 145.355 207.353 130.291 213.261C115.228 207.353 103.11 198.783 93.5812 188.541C80.6785 174.674 72.3314 157.831 68.0071 140.733C62.3624 118.414 63.9898 94.9363 65.0469 79.5304C73.0332 79.4984 80.1063 76.6775 85.2765 71.3697C90.3338 66.1778 93.5076 58.7654 94.7493 49.817Z" fill="#0070B6"/>
<path fill-rule="evenodd" clip-rule="evenodd" d="M130.317 73.2139C112.601 73.2139 98.2604 87.6674 98.2604 105.467V119.47C94.736 121.611 92.368 125.489 92.368 129.889V168.757C92.368 175.455 97.8525 180.939 104.55 180.939H156.296C162.993 180.939 168.478 175.455 168.478 168.757V129.889C168.478 125.403 166.016 121.459 162.378 119.346V105.467C162.378 87.6674 148.033 73.2139 130.317 73.2139ZM130.317 79.7534C144.499 79.7534 155.835 91.1544 155.835 105.467V117.706H104.8V105.467C104.8 91.1544 116.135 79.7534 130.317 79.7534ZM104.55 123.637H156.296C159.811 123.637 162.548 126.375 162.548 129.889V168.757C162.548 172.272 159.811 175.009 156.296 175.009H104.55C101.035 175.009 98.2984 172.272 98.2984 168.757V129.889C98.2984 126.375 101.035 123.637 104.55 123.637ZM130.601 133.604C129.151 133.604 127.715 133.889 126.375 134.444C125.035 134.999 123.817 135.812 122.792 136.838C121.766 137.863 120.953 139.081 120.398 140.42C119.843 141.76 119.557 143.196 119.557 144.647C119.557 147.033 120.33 149.355 121.76 151.265C123.19 153.175 125.2 154.57 127.49 155.242V166.5C127.49 168.218 128.883 169.612 130.601 169.612C132.319 169.612 133.711 168.218 133.711 166.5V155.242C136.001 154.57 138.011 153.175 139.441 151.265C140.871 149.355 141.644 147.033 141.644 144.647C141.644 141.718 140.48 138.909 138.409 136.838C136.339 134.767 133.53 133.604 130.601 133.604Z" fill="white"/>
</svg>
