<?xml version="1.0" encoding="UTF-8" standalone="no"?>
<!-- Created with Inkscape (http://www.inkscape.org/) -->

<svg
   width="119.59116mm"
   height="121.65807mm"
   viewBox="0 0 119.59116 121.65807"
   version="1.1"
   id="svg1"
   xml:space="preserve"
   inkscape:version="1.4.2 (1:1.4.2+202505120737+ebf0e940d0)"
   sodipodi:docname="success.svg"
   xmlns:inkscape="http://www.inkscape.org/namespaces/inkscape"
   xmlns:sodipodi="http://sodipodi.sourceforge.net/DTD/sodipodi-0.dtd"
   xmlns="http://www.w3.org/2000/svg"
   xmlns:svg="http://www.w3.org/2000/svg"><sodipodi:namedview
     id="namedview1"
     pagecolor="#ffffff"
     bordercolor="#000000"
     borderopacity="0.25"
     inkscape:showpageshadow="2"
     inkscape:pageopacity="0.0"
     inkscape:pagecheckerboard="0"
     inkscape:deskcolor="#d1d1d1"
     inkscape:document-units="mm"
     inkscape:zoom="1.0532399"
     inkscape:cx="195.11224"
     inkscape:cy="166.15398"
     inkscape:window-width="1920"
     inkscape:window-height="1017"
     inkscape:window-x="1920"
     inkscape:window-y="35"
     inkscape:window-maximized="1"
     inkscape:current-layer="layer1" /><defs
     id="defs1" /><g
     inkscape:label="Camada 1"
     inkscape:groupmode="layer"
     id="layer1"
     transform="translate(-42.941048,-86.177686)"><g
       id="g11"><path
         style="fill:#338000;fill-opacity:1;fill-rule:evenodd;stroke:none;stroke-width:3.16701;stroke-linecap:round;stroke-linejoin:bevel;stroke-miterlimit:0"
         d="m 162.53221,103.3725 c 0,0 -11.80682,2.26088 -29.01464,16.45419 -17.20781,14.1933 -35.997835,36.44469 -35.997835,36.44469 0,0 -4.662829,-3.46382 -8.215461,-5.68421 -3.552629,-2.2204 -10.791118,-5.99507 -10.791118,-5.99507 l -6.527959,11.2352 c 0,0 10.213816,4.97368 16.297696,8.92599 6.083882,3.9523 15.365127,10.74671 15.365127,10.74671 8.69437,-17.22637 20.53981,-33.15178 29.94113,-44.39937 8.20117,-10.76724 18.41188,-19.3776 28.94306,-27.72813 z"
         id="path1"
         sodipodi:nodetypes="cscsccscsc" /><path
         id="path2"
         style="fill:#005174;fill-opacity:1;fill-rule:evenodd;stroke:none;stroke-width:0.1;stroke-linecap:square;stroke-linejoin:miter;stroke-miterlimit:0;stroke-dasharray:none;paint-order:markers fill stroke"
         d="M 100.10965,86.177686 C 84.843341,95.843314 72.32268,101.25001 42.941048,106.31237 l 0.356568,12.61215 c -0.01007,10.16652 1.276374,29.06865 9.522933,47.17232 4.129309,9.06508 10.110947,18.30181 18.771464,26.29762 6.817268,6.29402 14.622997,11.3987 23.604244,14.26424 2.31313,0.73802 4.462921,1.21556 4.913393,1.17461 0.45047,0.0409 2.60027,-0.43659 4.9134,-1.17461 8.98124,-2.86554 16.78698,-7.97022 23.60424,-14.26424 8.66052,-7.99581 14.64215,-17.23254 18.77146,-26.29762 8.24656,-18.10367 9.53304,-37.0058 9.52294,-47.17232 l 0.15916,-5.62756 c -3.34336,2.83808 -6.62903,5.74577 -9.76323,8.80721 -0.046,1.14904 -0.0993,2.29374 -0.16174,3.43029 -0.65201,12.3518 -3.17202,24.69219 -8.20467,36.02415 -4.4995,10.18753 -11.30064,19.47748 -19.94917,26.56841 -3.94184,3.21596 -8.41668,6.02148 -13.12737,8.00416 -1.85041,0.6483 -3.62535,1.59527 -5.58415,1.87844 -1.249088,-0.12201 -2.512153,-0.54603 -3.755327,-0.99684 -10.126695,-3.79361 -18.812768,-10.83492 -25.508004,-19.2412 -3.036012,-3.81813 -5.578276,-7.81066 -7.81451,-12.1388 -3.277285,-6.39363 -5.747237,-13.41275 -7.419702,-20.48247 -2.426033,-9.87854 -2.856093,-20.11001 -3.089734,-30.28239 -0.305395,-0.85489 0.521904,-0.80407 1.129647,-0.92862 16.061391,-3.01588 31.905117,-8.06442 46.020447,-16.425872 0.102213,-0.0612 0.204733,-0.122252 0.306953,-0.183452 2.49746,1.467372 5.01562,2.901624 7.60729,4.197674 9.25616,4.68842 19.144,7.90865 29.21424,10.34614 1.60907,-1.17005 3.24676,-2.30198 4.91701,-3.39101 2.11364,-1.31961 4.25822,-2.62085 6.45439,-3.82198 -23.18332,-4.62413 -34.62031,-9.85776 -48.24357,-18.483114 z" /></g></g></svg>
